<svg width="50" height="50" viewBox="0 0 50 50" fill="none" xmlns="http://www.w3.org/2000/svg">
<g clip-path="url(#clip0_10_17)">
<rect width="50" height="50" fill="black"/>
<rect x="0.5" y="0.5" width="49" height="49" fill="#EC9090" stroke="black"/>
<path d="M37.3466 11.8182V17.4943H13.6193V11.8182H37.3466ZM21.6477 11.8182H28.6875V30.0568C28.6875 30.75 28.7784 31.2898 28.9602 31.6761C29.1534 32.0511 29.4205 32.3182 29.7614 32.4773C30.1023 32.625 30.5 32.6989 30.9545 32.6989C31.4886 32.6989 31.9205 32.6648 32.25 32.5966C32.5795 32.5284 32.9318 32.4489 33.3068 32.358L34.0398 37.7273C33.3125 38.0227 32.6023 38.2216 31.9091 38.3239C31.2273 38.4261 30.4318 38.4773 29.5227 38.4773C27.0341 38.4773 25.0966 37.7841 23.7102 36.3977C22.3352 35 21.6477 32.875 21.6477 30.0227V11.8182Z" fill="black"/>
</g>
<defs>
<clipPath id="clip0_10_17">
<rect width="50" height="50" fill="white"/>
</clipPath>
</defs>
</svg>
